<svg xmlns="http://www.w3.org/2000/svg" xmlns:xlink="http://www.w3.org/1999/xlink" width="500" zoomAndPan="magnify" viewBox="0 0 375 97.5" height="130" preserveAspectRatio="xMidYMid meet" version="1.0"><defs><g/><clipPath id="1f757ad093"><path d="M 5 4 L 82 4 L 82 93 L 5 93 Z M 5 4 " clip-rule="nonzero"/></clipPath><clipPath id="916ded083c"><path d="M 0.960938 81.496094 L 66.507812 0.0664062 L 85.648438 15.472656 L 20.101562 96.90625 Z M 0.960938 81.496094 " clip-rule="nonzero"/></clipPath><clipPath id="21a4403349"><path d="M 7.976562 72.777344 L 59.46875 8.808594 C 63.34375 3.992188 70.390625 3.230469 75.207031 7.109375 L 76.910156 8.480469 C 81.726562 12.355469 82.488281 19.402344 78.613281 24.21875 L 27.121094 88.1875 C 23.246094 93.003906 16.199219 93.765625 11.382812 89.886719 L 9.679688 88.515625 C 4.863281 84.640625 4.101562 77.59375 7.976562 72.777344 Z M 7.976562 72.777344 " clip-rule="nonzero"/></clipPath><clipPath id="eb12e35850"><path d="M 0 0 L 77 0 L 77 89 L 0 89 Z M 0 0 " clip-rule="nonzero"/></clipPath><clipPath id="cecc90be99"><path d="M -4.039062 77.496094 L 61.507812 -3.933594 L 80.648438 11.472656 L 15.101562 92.90625 Z M -4.039062 77.496094 " clip-rule="nonzero"/></clipPath><clipPath id="75e64fdbd0"><path d="M 2.976562 68.777344 L 54.46875 4.808594 C 58.34375 -0.0078125 65.390625 -0.769531 70.207031 3.109375 L 71.910156 4.480469 C 76.726562 8.355469 77.488281 15.402344 73.613281 20.21875 L 22.121094 84.1875 C 18.246094 89.003906 11.199219 89.765625 6.382812 85.886719 L 4.679688 84.515625 C -0.136719 80.640625 -0.898438 73.59375 2.976562 68.777344 Z M 2.976562 68.777344 " clip-rule="nonzero"/></clipPath><clipPath id="7ddc864db6"><rect x="0" width="77" y="0" height="89"/></clipPath><clipPath id="0fcc775946"><path d="M 56 32 L 110 32 L 110 93 L 56 93 Z M 56 32 " clip-rule="nonzero"/></clipPath><clipPath id="6feafff551"><path d="M 51.875 81.472656 L 94.851562 28.082031 L 113.996094 43.488281 L 71.019531 96.878906 Z M 51.875 81.472656 " clip-rule="nonzero"/></clipPath><clipPath id="79c15b9748"><path d="M 58.894531 72.753906 L 87.792969 36.855469 C 91.667969 32.039062 98.714844 31.277344 103.527344 35.152344 L 105.234375 36.527344 C 110.046875 40.402344 110.808594 47.449219 106.933594 52.261719 L 78.039062 88.160156 C 74.160156 92.976562 67.117188 93.738281 62.300781 89.863281 L 60.59375 88.488281 C 55.78125 84.613281 55.019531 77.566406 58.894531 72.753906 Z M 58.894531 72.753906 " clip-rule="nonzero"/></clipPath><clipPath id="663ea93da6"><path d="M 0 0 L 54 0 L 54 61 L 0 61 Z M 0 0 " clip-rule="nonzero"/></clipPath><clipPath id="27d1cf6f05"><path d="M -4.125 49.472656 L 38.851562 -3.917969 L 57.996094 11.488281 L 15.019531 64.878906 Z M -4.125 49.472656 " clip-rule="nonzero"/></clipPath><clipPath id="b04602ff0c"><path d="M 2.894531 40.753906 L 31.792969 4.855469 C 35.667969 0.0390625 42.714844 -0.722656 47.527344 3.152344 L 49.234375 4.527344 C 54.046875 8.402344 54.808594 15.449219 50.933594 20.261719 L 22.039062 56.160156 C 18.160156 60.976562 11.117188 61.738281 6.300781 57.863281 L 4.59375 56.488281 C -0.21875 52.613281 -0.980469 45.566406 2.894531 40.753906 Z M 2.894531 40.753906 " clip-rule="nonzero"/></clipPath><clipPath id="e66b43a571"><rect x="0" width="54" y="0" height="61"/></clipPath><clipPath id="43a4c1197d"><path d="M 107.5625 4.265625 L 132.214844 4.265625 L 132.214844 28.917969 L 107.5625 28.917969 Z M 107.5625 4.265625 " clip-rule="nonzero"/></clipPath><clipPath id="c11892c364"><path d="M 119.890625 4.265625 C 113.082031 4.265625 107.5625 9.785156 107.5625 16.59375 C 107.5625 23.398438 113.082031 28.917969 119.890625 28.917969 C 126.699219 28.917969 132.214844 23.398438 132.214844 16.59375 C 132.214844 9.785156 126.699219 4.265625 119.890625 4.265625 Z M 119.890625 4.265625 " clip-rule="nonzero"/></clipPath><clipPath id="c6ed56b52f"><path d="M 0.5625 0.265625 L 25.214844 0.265625 L 25.214844 24.917969 L 0.5625 24.917969 Z M 0.5625 0.265625 " clip-rule="nonzero"/></clipPath><clipPath id="86227d46ea"><path d="M 12.890625 0.265625 C 6.082031 0.265625 0.5625 5.785156 0.5625 12.59375 C 0.5625 19.398438 6.082031 24.917969 12.890625 24.917969 C 19.699219 24.917969 25.214844 19.398438 25.214844 12.59375 C 25.214844 5.785156 19.699219 0.265625 12.890625 0.265625 Z M 12.890625 0.265625 " clip-rule="nonzero"/></clipPath><clipPath id="0c085f350c"><rect x="0" width="26" y="0" height="25"/></clipPath><clipPath id="5fc093b9da"><path d="M 5.722656 5.042969 L 29.59375 5.042969 L 29.59375 28.917969 L 5.722656 28.917969 Z M 5.722656 5.042969 " clip-rule="nonzero"/></clipPath><clipPath id="2fc25461f5"><path d="M 17.65625 5.042969 C 11.066406 5.042969 5.722656 10.390625 5.722656 16.980469 C 5.722656 23.574219 11.066406 28.917969 17.65625 28.917969 C 24.25 28.917969 29.59375 23.574219 29.59375 16.980469 C 29.59375 10.390625 24.25 5.042969 17.65625 5.042969 Z M 17.65625 5.042969 " clip-rule="nonzero"/></clipPath><clipPath id="c18de77ee6"><path d="M 0.722656 0.0429688 L 24.59375 0.0429688 L 24.59375 23.917969 L 0.722656 23.917969 Z M 0.722656 0.0429688 " clip-rule="nonzero"/></clipPath><clipPath id="87f967d71a"><path d="M 12.65625 0.0429688 C 6.066406 0.0429688 0.722656 5.390625 0.722656 11.980469 C 0.722656 18.574219 6.066406 23.917969 12.65625 23.917969 C 19.25 23.917969 24.59375 18.574219 24.59375 11.980469 C 24.59375 5.390625 19.25 0.0429688 12.65625 0.0429688 Z M 12.65625 0.0429688 " clip-rule="nonzero"/></clipPath><clipPath id="e1c0632d7e"><rect x="0" width="25" y="0" height="24"/></clipPath><clipPath id="4c2b6b5341"><path d="M 143 0 L 374.042969 0 L 374.042969 97.003906 L 143 97.003906 Z M 143 0 " clip-rule="nonzero"/></clipPath><clipPath id="bbfcb766d4"><rect x="0" width="232" y="0" height="98"/></clipPath><clipPath id="1c16bd1a8c"><path d="M 191.792969 20.574219 L 205.15625 20.574219 L 205.15625 33.9375 L 191.792969 33.9375 Z M 191.792969 20.574219 " clip-rule="nonzero"/></clipPath><clipPath id="3a18b7b7f0"><path d="M 198.476562 20.574219 C 194.785156 20.574219 191.792969 23.566406 191.792969 27.257812 C 191.792969 30.949219 194.785156 33.9375 198.476562 33.9375 C 202.167969 33.9375 205.15625 30.949219 205.15625 27.257812 C 205.15625 23.566406 202.167969 20.574219 198.476562 20.574219 Z M 198.476562 20.574219 " clip-rule="nonzero"/></clipPath><clipPath id="40680a83b7"><path d="M 0.792969 0.574219 L 14.15625 0.574219 L 14.15625 13.9375 L 0.792969 13.9375 Z M 0.792969 0.574219 " clip-rule="nonzero"/></clipPath><clipPath id="0c9491c8cd"><path d="M 7.476562 0.574219 C 3.785156 0.574219 0.792969 3.566406 0.792969 7.257812 C 0.792969 10.949219 3.785156 13.9375 7.476562 13.9375 C 11.167969 13.9375 14.15625 10.949219 14.15625 7.257812 C 14.15625 3.566406 11.167969 0.574219 7.476562 0.574219 Z M 7.476562 0.574219 " clip-rule="nonzero"/></clipPath><clipPath id="4289e4b6a4"><rect x="0" width="15" y="0" height="14"/></clipPath></defs><g clip-path="url(#1f757ad093)"><g clip-path="url(#916ded083c)"><g clip-path="url(#21a4403349)"><g transform="matrix(1, 0, 0, 1, 5, 4)"><g clip-path="url(#7ddc864db6)"><g clip-path="url(#eb12e35850)"><g clip-path="url(#cecc90be99)"><g clip-path="url(#75e64fdbd0)"><path fill="#ffffff" d="M -4.039062 77.496094 L 61.507812 -3.933594 L 80.648438 11.472656 L 15.101562 92.90625 Z M -4.039062 77.496094 " fill-opacity="1" fill-rule="nonzero"/></g></g></g></g></g></g></g></g><g clip-path="url(#0fcc775946)"><g clip-path="url(#6feafff551)"><g clip-path="url(#79c15b9748)"><g transform="matrix(1, 0, 0, 1, 56, 32)"><g clip-path="url(#e66b43a571)"><g clip-path="url(#663ea93da6)"><g clip-path="url(#27d1cf6f05)"><g clip-path="url(#b04602ff0c)"><path fill="#ffffff" d="M -4.125 49.472656 L 38.792969 -3.84375 L 57.9375 11.566406 L 15.019531 64.878906 Z M -4.125 49.472656 " fill-opacity="1" fill-rule="nonzero"/></g></g></g></g></g></g></g></g><g clip-path="url(#43a4c1197d)"><g clip-path="url(#c11892c364)"><g transform="matrix(1, 0, 0, 1, 107, 4)"><g clip-path="url(#0c085f350c)"><g clip-path="url(#c6ed56b52f)"><g clip-path="url(#86227d46ea)"><path fill="#ed7d3a" d="M 0.5625 0.265625 L 25.214844 0.265625 L 25.214844 24.917969 L 0.5625 24.917969 Z M 0.5625 0.265625 " fill-opacity="1" fill-rule="nonzero"/></g></g></g></g></g></g><g clip-path="url(#5fc093b9da)"><g clip-path="url(#2fc25461f5)"><g transform="matrix(1, 0, 0, 1, 5, 5)"><g clip-path="url(#e1c0632d7e)"><g clip-path="url(#c18de77ee6)"><g clip-path="url(#87f967d71a)"><path fill="#ed7d3a" d="M 0.722656 0.0429688 L 24.59375 0.0429688 L 24.59375 23.917969 L 0.722656 23.917969 Z M 0.722656 0.0429688 " fill-opacity="1" fill-rule="nonzero"/></g></g></g></g></g></g><g clip-path="url(#4c2b6b5341)"><g transform="matrix(1, 0, 0, 1, 143, 0.000000000000016238)"><g clip-path="url(#bbfcb766d4)"><g fill="#ffffff" fill-opacity="1"><g transform="translate(0.856424, 78.307529)"><g><path d="M 17.6875 -54 L 17.6875 -8.9375 L 41.953125 -8.9375 L 41.953125 0 L 7.015625 0 L 7.015625 -54 Z M 17.6875 -54 "/></g></g></g><g fill="#ffffff" fill-opacity="1"><g transform="translate(44.583311, 78.307529)"><g><path d="M 10.96875 -45.609375 C 9.125 -45.609375 7.625 -46.164062 6.46875 -47.28125 C 5.3125 -48.40625 4.734375 -49.859375 4.734375 -51.640625 C 4.734375 -53.378906 5.3125 -54.804688 6.46875 -55.921875 C 7.625 -57.046875 9.125 -57.609375 10.96875 -57.609375 C 12.195312 -57.609375 13.289062 -57.347656 14.25 -56.828125 C 15.21875 -56.316406 15.960938 -55.613281 16.484375 -54.71875 C 17.015625 -53.820312 17.28125 -52.796875 17.28125 -51.640625 C 17.28125 -50.472656 17.015625 -49.4375 16.484375 -48.53125 C 15.960938 -47.625 15.21875 -46.910156 14.25 -46.390625 C 13.289062 -45.867188 12.195312 -45.609375 10.96875 -45.609375 Z M 5.875 0 L 5.875 -40.734375 L 16.109375 -40.734375 L 16.109375 0 Z M 5.875 0 "/></g></g></g><g fill="#ffffff" fill-opacity="1"><g transform="translate(66.520618, 78.307529)"><g><path d="M 28.03125 0 L 15.84375 0 L 0.78125 -40.734375 L 11.484375 -40.734375 L 21.609375 -11.703125 L 22.453125 -11.703125 L 32.609375 -40.734375 L 43.0625 -40.734375 Z M 28.03125 0 "/></g></g></g><g fill="#ffffff" fill-opacity="1"><g transform="translate(109.545729, 78.307529)"><g><path d="M 23.671875 0.78125 C 19.679688 0.78125 16.175781 -0.0351562 13.15625 -1.671875 C 10.144531 -3.316406 7.804688 -5.71875 6.140625 -8.875 C 4.484375 -12.039062 3.65625 -15.863281 3.65625 -20.34375 C 3.65625 -24.832031 4.484375 -28.660156 6.140625 -31.828125 C 7.804688 -35.003906 10.144531 -37.410156 13.15625 -39.046875 C 16.175781 -40.691406 19.679688 -41.515625 23.671875 -41.515625 C 27.660156 -41.515625 31.160156 -40.691406 34.171875 -39.046875 C 37.191406 -37.410156 39.539062 -35.003906 41.21875 -31.828125 C 42.894531 -28.660156 43.734375 -24.832031 43.734375 -20.34375 C 43.734375 -15.863281 42.894531 -12.039062 41.21875 -8.875 C 39.539062 -5.71875 37.191406 -3.316406 34.171875 -1.671875 C 31.160156 -0.0351562 27.660156 0.78125 23.671875 0.78125 Z M 23.671875 -7.90625 C 30.003906 -7.90625 33.171875 -12.050781 33.171875 -20.34375 C 33.171875 -24.65625 32.359375 -27.8125 30.734375 -29.8125 C 29.109375 -31.820312 26.753906 -32.828125 23.671875 -32.828125 C 17.347656 -32.828125 14.1875 -28.664062 14.1875 -20.34375 C 14.1875 -12.050781 17.347656 -7.90625 23.671875 -7.90625 Z M 23.671875 -7.90625 "/></g></g></g><g fill="#ffffff" fill-opacity="1"><g transform="translate(156.891902, 78.307529)"><g><path d="M 5.875 0 L 5.875 -40.734375 L 15.8125 -40.734375 L 15.8125 -34.6875 L 16.578125 -34.53125 C 17.566406 -36.800781 18.859375 -38.460938 20.453125 -39.515625 C 22.054688 -40.578125 24.003906 -41.109375 26.296875 -41.109375 C 28.609375 -41.109375 30.367188 -40.710938 31.578125 -39.921875 L 29.84375 -31.09375 L 29.0625 -30.953125 C 28.394531 -31.222656 27.753906 -31.414062 27.140625 -31.53125 C 26.523438 -31.65625 25.773438 -31.71875 24.890625 -31.71875 C 22.035156 -31.71875 19.859375 -30.710938 18.359375 -28.703125 C 16.859375 -26.703125 16.109375 -23.488281 16.109375 -19.0625 L 16.109375 0 Z M 5.875 0 "/></g></g></g><g fill="#ffffff" fill-opacity="1"><g transform="translate(188.06201, 78.307529)"><g><path d="M 15.875 0.78125 C 13.269531 0.78125 11.003906 0.300781 9.078125 -0.65625 C 7.160156 -1.625 5.6875 -3.035156 4.65625 -4.890625 C 3.625 -6.753906 3.109375 -8.988281 3.109375 -11.59375 C 3.109375 -14.007812 3.625 -16.035156 4.65625 -17.671875 C 5.6875 -19.304688 7.285156 -20.644531 9.453125 -21.6875 C 11.617188 -22.738281 14.453125 -23.550781 17.953125 -24.125 C 20.390625 -24.507812 22.238281 -24.9375 23.5 -25.40625 C 24.769531 -25.875 25.625 -26.40625 26.0625 -27 C 26.507812 -27.59375 26.734375 -28.34375 26.734375 -29.25 C 26.734375 -30.550781 26.273438 -31.546875 25.359375 -32.234375 C 24.453125 -32.929688 22.941406 -33.28125 20.828125 -33.28125 C 18.566406 -33.28125 16.410156 -32.773438 14.359375 -31.765625 C 12.316406 -30.753906 10.546875 -29.425781 9.046875 -27.78125 L 8.3125 -27.78125 L 4.03125 -34.234375 C 6.09375 -36.523438 8.613281 -38.3125 11.59375 -39.59375 C 14.570312 -40.875 17.820312 -41.515625 21.34375 -41.515625 C 26.738281 -41.515625 30.640625 -40.367188 33.046875 -38.078125 C 35.460938 -35.785156 36.671875 -32.535156 36.671875 -28.328125 L 36.671875 -10.640625 C 36.671875 -8.816406 37.472656 -7.90625 39.078125 -7.90625 C 39.691406 -7.90625 40.296875 -8.015625 40.890625 -8.234375 L 41.40625 -8.09375 L 42.140625 -0.953125 C 41.578125 -0.585938 40.789062 -0.285156 39.78125 -0.046875 C 38.769531 0.179688 37.660156 0.296875 36.453125 0.296875 C 34.015625 0.296875 32.113281 -0.171875 30.75 -1.109375 C 29.382812 -2.046875 28.40625 -3.507812 27.8125 -5.5 L 27.03125 -5.578125 C 25.039062 -1.335938 21.320312 0.78125 15.875 0.78125 Z M 19.125 -6.875 C 21.488281 -6.875 23.378906 -7.664062 24.796875 -9.25 C 26.210938 -10.84375 26.921875 -13.050781 26.921875 -15.875 L 26.921875 -20.015625 L 26.21875 -20.171875 C 25.601562 -19.671875 24.796875 -19.253906 23.796875 -18.921875 C 22.804688 -18.597656 21.375 -18.273438 19.5 -17.953125 C 17.28125 -17.578125 15.6875 -16.941406 14.71875 -16.046875 C 13.75 -15.148438 13.265625 -13.875 13.265625 -12.21875 C 13.265625 -10.476562 13.78125 -9.148438 14.8125 -8.234375 C 15.84375 -7.328125 17.28125 -6.875 19.125 -6.875 Z M 19.125 -6.875 "/></g></g></g></g></g></g><g clip-path="url(#1c16bd1a8c)"><g clip-path="url(#3a18b7b7f0)"><g transform="matrix(1, 0, 0, 1, 191, 20)"><g clip-path="url(#4289e4b6a4)"><g clip-path="url(#40680a83b7)"><g clip-path="url(#0c9491c8cd)"><path fill="#ed7d3a" d="M 0.792969 0.574219 L 14.15625 0.574219 L 14.15625 13.9375 L 0.792969 13.9375 Z M 0.792969 0.574219 " fill-opacity="1" fill-rule="nonzero"/></g></g></g></g></g></g></svg>