<svg xmlns="http://www.w3.org/2000/svg" xmlns:xlink="http://www.w3.org/1999/xlink" width="176" zoomAndPan="magnify" viewBox="0 0 132 97.5" height="130" preserveAspectRatio="xMidYMid meet" version="1.0"><defs><clipPath id="b6f2b7741a"><path d="M 5 4 L 81 4 L 81 92 L 5 92 Z M 5 4 " clip-rule="nonzero"/></clipPath><clipPath id="af5795ce7c"><path d="M 0.339844 81.441406 L 65.917969 -0.03125 L 85.070312 15.386719 L 19.492188 96.859375 Z M 0.339844 81.441406 " clip-rule="nonzero"/></clipPath><clipPath id="d80318e791"><path d="M 8.046875 71.867188 L 58.191406 9.570312 C 60.234375 7.03125 63.207031 5.40625 66.445312 5.054688 C 69.6875 4.707031 72.9375 5.65625 75.476562 7.703125 C 78.015625 9.746094 79.640625 12.714844 79.988281 15.957031 C 80.339844 19.199219 79.386719 22.445312 77.34375 24.988281 L 27.199219 87.28125 C 25.15625 89.824219 22.183594 91.445312 18.945312 91.796875 C 15.703125 92.148438 12.453125 91.195312 9.914062 89.152344 C 7.375 87.105469 5.75 84.136719 5.402344 80.894531 C 5.050781 77.652344 6.003906 74.40625 8.046875 71.867188 Z M 8.046875 71.867188 " clip-rule="nonzero"/></clipPath><clipPath id="c95ffdc49c"><path d="M 0 0.535156 L 75.566406 0.535156 L 75.566406 88 L 0 88 Z M 0 0.535156 " clip-rule="nonzero"/></clipPath><clipPath id="07520c6a40"><path d="M -4.660156 77.441406 L 60.917969 -4.03125 L 80.070312 11.386719 L 14.492188 92.859375 Z M -4.660156 77.441406 " clip-rule="nonzero"/></clipPath><clipPath id="d6d00298ad"><path d="M 3.046875 67.867188 L 53.191406 5.570312 C 55.234375 3.03125 58.207031 1.40625 61.445312 1.054688 C 64.6875 0.707031 67.9375 1.65625 70.476562 3.703125 C 73.015625 5.746094 74.640625 8.714844 74.988281 11.957031 C 75.339844 15.199219 74.386719 18.445312 72.34375 20.988281 L 22.199219 83.28125 C 20.15625 85.824219 17.183594 87.445312 13.945312 87.796875 C 10.703125 88.148438 7.453125 87.195312 4.914062 85.152344 C 2.375 83.105469 0.75 80.136719 0.402344 76.894531 C 0.0507812 73.652344 1.003906 70.40625 3.046875 67.867188 Z M 3.046875 67.867188 " clip-rule="nonzero"/></clipPath><clipPath id="813c6311e0"><rect x="0" width="76" y="0" height="88"/></clipPath><clipPath id="46a72f0ad9"><path d="M 56 33 L 109 33 L 109 92 L 56 92 Z M 56 33 " clip-rule="nonzero"/></clipPath><clipPath id="cb79137e44"><path d="M 51.28125 81.417969 L 94.28125 28.003906 L 113.433594 43.417969 L 70.4375 96.835938 Z M 51.28125 81.417969 " clip-rule="nonzero"/></clipPath><clipPath id="5213ad40ff"><path d="M 58.992188 71.84375 L 86.53125 37.632812 C 88.574219 35.09375 91.542969 33.46875 94.785156 33.117188 C 98.027344 32.769531 101.273438 33.71875 103.8125 35.765625 C 106.355469 37.808594 107.976562 40.777344 108.328125 44.019531 C 108.679688 47.261719 107.726562 50.507812 105.683594 53.050781 L 78.144531 87.261719 C 76.101562 89.800781 73.128906 91.421875 69.890625 91.773438 C 66.648438 92.125 63.398438 91.171875 60.859375 89.128906 C 58.320312 87.082031 56.695312 84.113281 56.347656 80.871094 C 55.996094 77.632812 56.945312 74.382812 58.992188 71.84375 Z M 58.992188 71.84375 " clip-rule="nonzero"/></clipPath><clipPath id="e930ec744b"><path d="M 0 0 L 52.742188 0 L 52.742188 59 L 0 59 Z M 0 0 " clip-rule="nonzero"/></clipPath><clipPath id="39602cab19"><path d="M -4.71875 48.417969 L 38.28125 -4.996094 L 57.433594 10.417969 L 14.4375 63.835938 Z M -4.71875 48.417969 " clip-rule="nonzero"/></clipPath><clipPath id="bc52f16e3b"><path d="M 2.992188 38.84375 L 30.53125 4.632812 C 32.574219 2.09375 35.542969 0.46875 38.785156 0.117188 C 42.027344 -0.230469 45.273438 0.71875 47.8125 2.765625 C 50.355469 4.808594 51.976562 7.777344 52.328125 11.019531 C 52.679688 14.261719 51.726562 17.507812 49.683594 20.050781 L 22.144531 54.261719 C 20.101562 56.800781 17.128906 58.421875 13.890625 58.773438 C 10.648438 59.125 7.398438 58.171875 4.859375 56.128906 C 2.320312 54.082031 0.695312 51.113281 0.347656 47.871094 C -0.00390625 44.632812 0.945312 41.382812 2.992188 38.84375 Z M 2.992188 38.84375 " clip-rule="nonzero"/></clipPath><clipPath id="e731cbdec5"><rect x="0" width="53" y="0" height="59"/></clipPath><clipPath id="3ca993a60c"><path d="M 107 4.175781 L 131.664062 4.175781 L 131.664062 28.839844 L 107 28.839844 Z M 107 4.175781 " clip-rule="nonzero"/></clipPath><clipPath id="629b89005e"><path d="M 119.332031 4.175781 C 112.519531 4.175781 107 9.695312 107 16.507812 C 107 23.320312 112.519531 28.839844 119.332031 28.839844 C 126.140625 28.839844 131.664062 23.320312 131.664062 16.507812 C 131.664062 9.695312 126.140625 4.175781 119.332031 4.175781 Z M 119.332031 4.175781 " clip-rule="nonzero"/></clipPath><clipPath id="4f4850d9ec"><path d="M 0 0.175781 L 24.664062 0.175781 L 24.664062 24.839844 L 0 24.839844 Z M 0 0.175781 " clip-rule="nonzero"/></clipPath><clipPath id="dd8d18e3ac"><path d="M 12.332031 0.175781 C 5.519531 0.175781 0 5.695312 0 12.507812 C 0 19.320312 5.519531 24.839844 12.332031 24.839844 C 19.140625 24.839844 24.664062 19.320312 24.664062 12.507812 C 24.664062 5.695312 19.140625 0.175781 12.332031 0.175781 Z M 12.332031 0.175781 " clip-rule="nonzero"/></clipPath><clipPath id="1457e76cc1"><rect x="0" width="25" y="0" height="25"/></clipPath><clipPath id="e0cf55ea46"><path d="M 5.101562 4.953125 L 28.988281 4.953125 L 28.988281 28.839844 L 5.101562 28.839844 Z M 5.101562 4.953125 " clip-rule="nonzero"/></clipPath><clipPath id="d84a116da5"><path d="M 17.046875 4.953125 C 10.449219 4.953125 5.101562 10.300781 5.101562 16.898438 C 5.101562 23.492188 10.449219 28.839844 17.046875 28.839844 C 23.640625 28.839844 28.988281 23.492188 28.988281 16.898438 C 28.988281 10.300781 23.640625 4.953125 17.046875 4.953125 Z M 17.046875 4.953125 " clip-rule="nonzero"/></clipPath><clipPath id="89dc5a5681"><path d="M 0.101562 0.953125 L 23.988281 0.953125 L 23.988281 24.839844 L 0.101562 24.839844 Z M 0.101562 0.953125 " clip-rule="nonzero"/></clipPath><clipPath id="e70c42dfa6"><path d="M 12.046875 0.953125 C 5.449219 0.953125 0.101562 6.300781 0.101562 12.898438 C 0.101562 19.492188 5.449219 24.839844 12.046875 24.839844 C 18.640625 24.839844 23.988281 19.492188 23.988281 12.898438 C 23.988281 6.300781 18.640625 0.953125 12.046875 0.953125 Z M 12.046875 0.953125 " clip-rule="nonzero"/></clipPath><clipPath id="513a97e264"><rect x="0" width="24" y="0" height="25"/></clipPath></defs><g clip-path="url(#b6f2b7741a)"><g clip-path="url(#af5795ce7c)"><g clip-path="url(#d80318e791)"><g transform="matrix(1, 0, 0, 1, 5, 4)"><g clip-path="url(#813c6311e0)"><g clip-path="url(#c95ffdc49c)"><g clip-path="url(#07520c6a40)"><g clip-path="url(#d6d00298ad)"><path fill="#2f3d7e" d="M -4.660156 77.441406 L 60.917969 -4.03125 L 80.070312 11.386719 L 14.492188 92.859375 Z M -4.660156 77.441406 " fill-opacity="1" fill-rule="nonzero"/></g></g></g></g></g></g></g></g><g clip-path="url(#46a72f0ad9)"><g clip-path="url(#cb79137e44)"><g clip-path="url(#5213ad40ff)"><g transform="matrix(1, 0, 0, 1, 56, 33)"><g clip-path="url(#e731cbdec5)"><g clip-path="url(#e930ec744b)"><g clip-path="url(#39602cab19)"><g clip-path="url(#bc52f16e3b)"><path fill="#2f3d7e" d="M -4.71875 48.417969 L 38.222656 -4.921875 L 57.375 10.492188 L 14.4375 63.835938 Z M -4.71875 48.417969 " fill-opacity="1" fill-rule="nonzero"/></g></g></g></g></g></g></g></g><g clip-path="url(#3ca993a60c)"><g clip-path="url(#629b89005e)"><g transform="matrix(1, 0, 0, 1, 107, 4)"><g clip-path="url(#1457e76cc1)"><g clip-path="url(#4f4850d9ec)"><g clip-path="url(#dd8d18e3ac)"><path fill="#ed7d3a" d="M 0 0.175781 L 24.664062 0.175781 L 24.664062 24.839844 L 0 24.839844 Z M 0 0.175781 " fill-opacity="1" fill-rule="nonzero"/></g></g></g></g></g></g><g clip-path="url(#e0cf55ea46)"><g clip-path="url(#d84a116da5)"><g transform="matrix(1, 0, 0, 1, 5, 4)"><g clip-path="url(#513a97e264)"><g clip-path="url(#89dc5a5681)"><g clip-path="url(#e70c42dfa6)"><path fill="#ed7d3a" d="M 0.101562 0.953125 L 23.988281 0.953125 L 23.988281 24.839844 L 0.101562 24.839844 Z M 0.101562 0.953125 " fill-opacity="1" fill-rule="nonzero"/></g></g></g></g></g></g></svg>