<svg xmlns="http://www.w3.org/2000/svg" xmlns:xlink="http://www.w3.org/1999/xlink" width="176" zoomAndPan="magnify" viewBox="0 0 132 97.5" height="130" preserveAspectRatio="xMidYMid meet" version="1.0"><defs><clipPath id="cf8e25298a"><path d="M 0.335938 0 L 131.664062 0 L 131.664062 97 L 0.335938 97 Z M 0.335938 0 " clip-rule="nonzero"/></clipPath><clipPath id="8d1a555838"><path d="M 2 1 L 84 1 L 84 96 L 2 96 Z M 2 1 " clip-rule="nonzero"/></clipPath><clipPath id="9380979a9a"><path d="M 0.335938 81.445312 L 65.917969 -0.0273438 L 85.070312 15.386719 L 19.488281 96.859375 Z M 0.335938 81.445312 " clip-rule="nonzero"/></clipPath><clipPath id="b81c8bba2d"><path d="M 3.144531 77.957031 L 63.089844 3.484375 C 63.835938 2.558594 64.914062 1.96875 66.097656 1.839844 C 67.277344 1.710938 68.460938 2.058594 69.382812 2.804688 L 81.5625 12.605469 C 82.488281 13.347656 83.078125 14.429688 83.207031 15.613281 C 83.332031 16.792969 82.988281 17.976562 82.242188 18.898438 L 22.296875 93.375 C 21.550781 94.296875 20.46875 94.890625 19.289062 95.015625 C 18.109375 95.144531 16.925781 94.796875 16 94.054688 L 3.824219 84.25 C 2.898438 83.507812 2.308594 82.425781 2.179688 81.246094 C 2.050781 80.0625 2.398438 78.882812 3.144531 77.957031 Z M 3.144531 77.957031 " clip-rule="nonzero"/></clipPath><clipPath id="ae84225b8d"><path d="M 0.0078125 0.671875 L 81.429688 0.671875 L 81.429688 94.269531 L 0.0078125 94.269531 Z M 0.0078125 0.671875 " clip-rule="nonzero"/></clipPath><clipPath id="3df9094eec"><path d="M -1.664062 80.445312 L 63.917969 -1.027344 L 83.070312 14.386719 L 17.488281 95.859375 Z M -1.664062 80.445312 " clip-rule="nonzero"/></clipPath><clipPath id="a23038599e"><path d="M 1.144531 76.957031 L 61.089844 2.484375 C 61.835938 1.558594 62.914062 0.96875 64.097656 0.839844 C 65.277344 0.710938 66.460938 1.058594 67.382812 1.804688 L 79.5625 11.605469 C 80.488281 12.347656 81.078125 13.429688 81.207031 14.613281 C 81.332031 15.792969 80.988281 16.976562 80.242188 17.898438 L 20.296875 92.375 C 19.550781 93.296875 18.46875 93.890625 17.289062 94.015625 C 16.109375 94.144531 14.925781 93.796875 14 93.054688 L 1.824219 83.25 C 0.898438 82.507812 0.308594 81.425781 0.179688 80.246094 C 0.0507812 79.0625 0.398438 77.882812 1.144531 76.957031 Z M 1.144531 76.957031 " clip-rule="nonzero"/></clipPath><clipPath id="4ff54d2672"><rect x="0" width="82" y="0" height="95"/></clipPath><clipPath id="d18cb56169"><path d="M 53 29 L 112 29 L 112 96 L 53 96 Z M 53 29 " clip-rule="nonzero"/></clipPath><clipPath id="dfe685b60e"><path d="M 51.28125 81.421875 L 94.28125 28.003906 L 113.433594 43.421875 L 70.433594 96.839844 Z M 51.28125 81.421875 " clip-rule="nonzero"/></clipPath><clipPath id="7d9204491a"><path d="M 54.089844 77.9375 L 91.429688 31.546875 C 92.171875 30.621094 93.253906 30.03125 94.433594 29.902344 C 95.617188 29.777344 96.800781 30.121094 97.722656 30.867188 L 109.902344 40.667969 C 110.828125 41.414062 111.417969 42.496094 111.546875 43.675781 C 111.671875 44.855469 111.324219 46.039062 110.582031 46.964844 L 73.242188 93.351562 C 72.496094 94.277344 71.414062 94.867188 70.234375 94.996094 C 69.054688 95.125 67.871094 94.777344 66.945312 94.03125 L 54.769531 84.230469 C 53.84375 83.484375 53.253906 82.40625 53.125 81.222656 C 52.996094 80.042969 53.34375 78.859375 54.089844 77.9375 Z M 54.089844 77.9375 " clip-rule="nonzero"/></clipPath><clipPath id="fe9cd1660d"><path d="M 0 0.609375 L 58.84375 0.609375 L 58.84375 66.269531 L 0 66.269531 Z M 0 0.609375 " clip-rule="nonzero"/></clipPath><clipPath id="560d6f3ddc"><path d="M -1.71875 52.421875 L 41.28125 -0.996094 L 60.433594 14.421875 L 17.433594 67.839844 Z M -1.71875 52.421875 " clip-rule="nonzero"/></clipPath><clipPath id="77a6f6b4ea"><path d="M 1.089844 48.9375 L 38.429688 2.546875 C 39.171875 1.621094 40.253906 1.03125 41.433594 0.902344 C 42.617188 0.777344 43.800781 1.121094 44.722656 1.867188 L 56.902344 11.667969 C 57.828125 12.414062 58.417969 13.496094 58.546875 14.675781 C 58.671875 15.855469 58.324219 17.039062 57.582031 17.964844 L 20.242188 64.351562 C 19.496094 65.277344 18.414062 65.867188 17.234375 65.996094 C 16.054688 66.125 14.871094 65.777344 13.945312 65.03125 L 1.769531 55.230469 C 0.84375 54.484375 0.253906 53.40625 0.125 52.222656 C -0.00390625 51.042969 0.34375 49.859375 1.089844 48.9375 Z M 1.089844 48.9375 " clip-rule="nonzero"/></clipPath><clipPath id="79fc622f15"><rect x="0" width="59" y="0" height="67"/></clipPath><clipPath id="8a882d943c"><path d="M 107 4.175781 L 131.664062 4.175781 L 131.664062 28.839844 L 107 28.839844 Z M 107 4.175781 " clip-rule="nonzero"/></clipPath><clipPath id="dd1346ca76"><path d="M 119.332031 4.175781 C 112.519531 4.175781 107 9.695312 107 16.507812 C 107 23.320312 112.519531 28.839844 119.332031 28.839844 C 126.140625 28.839844 131.664062 23.320312 131.664062 16.507812 C 131.664062 9.695312 126.140625 4.175781 119.332031 4.175781 Z M 119.332031 4.175781 " clip-rule="nonzero"/></clipPath><clipPath id="52bcd5cbfa"><path d="M 0 0.175781 L 24.664062 0.175781 L 24.664062 24.839844 L 0 24.839844 Z M 0 0.175781 " clip-rule="nonzero"/></clipPath><clipPath id="fcba80b74c"><path d="M 12.332031 0.175781 C 5.519531 0.175781 0 5.695312 0 12.507812 C 0 19.320312 5.519531 24.839844 12.332031 24.839844 C 19.140625 24.839844 24.664062 19.320312 24.664062 12.507812 C 24.664062 5.695312 19.140625 0.175781 12.332031 0.175781 Z M 12.332031 0.175781 " clip-rule="nonzero"/></clipPath><clipPath id="068939df63"><rect x="0" width="25" y="0" height="25"/></clipPath><clipPath id="e69c869144"><path d="M 5.101562 4.953125 L 28.988281 4.953125 L 28.988281 28.839844 L 5.101562 28.839844 Z M 5.101562 4.953125 " clip-rule="nonzero"/></clipPath><clipPath id="75c9343741"><path d="M 17.046875 4.953125 C 10.449219 4.953125 5.101562 10.300781 5.101562 16.898438 C 5.101562 23.492188 10.449219 28.839844 17.046875 28.839844 C 23.640625 28.839844 28.988281 23.492188 28.988281 16.898438 C 28.988281 10.300781 23.640625 4.953125 17.046875 4.953125 Z M 17.046875 4.953125 " clip-rule="nonzero"/></clipPath><clipPath id="46f598dd39"><path d="M 0.101562 0.953125 L 23.988281 0.953125 L 23.988281 24.839844 L 0.101562 24.839844 Z M 0.101562 0.953125 " clip-rule="nonzero"/></clipPath><clipPath id="f24b345e91"><path d="M 12.046875 0.953125 C 5.449219 0.953125 0.101562 6.300781 0.101562 12.898438 C 0.101562 19.492188 5.449219 24.839844 12.046875 24.839844 C 18.640625 24.839844 23.988281 19.492188 23.988281 12.898438 C 23.988281 6.300781 18.640625 0.953125 12.046875 0.953125 Z M 12.046875 0.953125 " clip-rule="nonzero"/></clipPath><clipPath id="b81ebf9ff8"><rect x="0" width="24" y="0" height="25"/></clipPath><clipPath id="f3031fbdff"><rect x="0" width="132" y="0" height="97"/></clipPath></defs><g clip-path="url(#cf8e25298a)"><g transform="matrix(1, 0, 0, 1, 0.000000000000000056, 0.000000000000016238)"><g clip-path="url(#f3031fbdff)"><g clip-path="url(#8d1a555838)"><g clip-path="url(#9380979a9a)"><g clip-path="url(#b81c8bba2d)"><g transform="matrix(1, 0, 0, 1, 2, 1)"><g clip-path="url(#4ff54d2672)"><g clip-path="url(#ae84225b8d)"><g clip-path="url(#3df9094eec)"><g clip-path="url(#a23038599e)"><path fill="#ffffff" d="M -1.664062 80.445312 L 63.917969 -1.027344 L 83.070312 14.386719 L 17.488281 95.859375 Z M -1.664062 80.445312 " fill-opacity="1" fill-rule="nonzero"/></g></g></g></g></g></g></g></g><g clip-path="url(#d18cb56169)"><g clip-path="url(#dfe685b60e)"><g clip-path="url(#7d9204491a)"><g transform="matrix(1, 0, 0, 1, 53, 29)"><g clip-path="url(#79fc622f15)"><g clip-path="url(#fe9cd1660d)"><g clip-path="url(#560d6f3ddc)"><g clip-path="url(#77a6f6b4ea)"><path fill="#ffffff" d="M -1.71875 52.421875 L 41.21875 -0.917969 L 60.371094 14.496094 L 17.433594 67.839844 Z M -1.71875 52.421875 " fill-opacity="1" fill-rule="nonzero"/></g></g></g></g></g></g></g></g><g clip-path="url(#8a882d943c)"><g clip-path="url(#dd1346ca76)"><g transform="matrix(1, 0, 0, 1, 107, 4)"><g clip-path="url(#068939df63)"><g clip-path="url(#52bcd5cbfa)"><g clip-path="url(#fcba80b74c)"><path fill="#ed7d3a" d="M 0 0.175781 L 24.664062 0.175781 L 24.664062 24.839844 L 0 24.839844 Z M 0 0.175781 " fill-opacity="1" fill-rule="nonzero"/></g></g></g></g></g></g><g clip-path="url(#e69c869144)"><g clip-path="url(#75c9343741)"><g transform="matrix(1, 0, 0, 1, 5, 4)"><g clip-path="url(#b81ebf9ff8)"><g clip-path="url(#46f598dd39)"><g clip-path="url(#f24b345e91)"><path fill="#ed7d3a" d="M 0.101562 0.953125 L 23.988281 0.953125 L 23.988281 24.839844 L 0.101562 24.839844 Z M 0.101562 0.953125 " fill-opacity="1" fill-rule="nonzero"/></g></g></g></g></g></g></g></g></g></svg>